<svg xmlns="http://www.w3.org/2000/svg" width="32.48" height="30" viewBox="0 0 32.48 30">
  <g id="Icon_ionic-ios-cart" data-name="Icon ionic-ios-cart" transform="translate(-3.382 -4.493)">
    <path id="Path_1" data-name="Path 1" d="M12.938,29.813a1.688,1.688,0,1,1-1.687-1.688,1.688,1.688,0,0,1,1.688,1.688Z" transform="translate(0.774 2.993)" fill="#0b0a07"/>
    <path id="Path_2" data-name="Path 2" d="M28.723,29.813a1.687,1.687,0,1,1-1.687-1.688,1.687,1.687,0,0,1,1.687,1.688Z" transform="translate(3.24 2.993)" fill="#0b0a07"/>
    <path id="Path_3" data-name="Path 3" d="M35.85,9.934a.461.461,0,0,0-.406-.335L10.005,7.09a.782.782,0,0,1-.586-.374,8.13,8.13,0,0,0-.953-1.482c-.6-.749-1.734-.725-3.811-.741A1.146,1.146,0,0,0,3.382,5.616,1.125,1.125,0,0,0,4.6,6.74a10.179,10.179,0,0,1,2.031.151C7,7,7.3,7.616,7.4,8.15a.03.03,0,0,0,.008.024c.016.1.156.813.156.821l3.124,16.857A6.263,6.263,0,0,0,11.825,28.7a3.1,3.1,0,0,0,2.57,1.291H32.874A1.12,1.12,0,0,0,34,28.918a1.1,1.1,0,0,0-1.093-1.163H14.379a.9.9,0,0,1-.648-.223,3.6,3.6,0,0,1-.9-2.071L12.5,23.573a.044.044,0,0,1,.031-.048l21.69-3.744a.462.462,0,0,0,.383-.414l1.25-9.225A.463.463,0,0,0,35.85,9.934Z" fill="#0b0a07"/>
  </g>
</svg>
